{
.appVersion = "1230";
copyright = MIT;
date = "2019-09-04 14:05:03 +0000";
designer = "Gelehrte Crest";
designerURL = "http://www.gelehrte.com";
familyName = Norvrandt;
fontMaster = (
{
ascender = 800;
capHeight = 700;
descender = -200;
id = "FC429158-EA96-492C-B709-B39596C20987";
xHeight = 500;
}
);
glyphs = (
{
glyphname = A;
lastChange = "2019-09-04 14:31:49 +0000";
layers = (
{
layerId = "FC429158-EA96-492C-B709-B39596C20987";
paths = (
{
closed = 1;
nodes = (
"420 433 LINE",
"420 433 OFFCURVE",
"361 406 OFFCURVE",
"336 396 CURVE",
"315 387 OFFCURVE",
"268 371 OFFCURVE",
"268 371 CURVE",
"258 539 LINE",
"154 249 LINE",
"154 249 OFFCURVE",
"220 303 OFFCURVE",
"240 310 CURVE",
"261 318 OFFCURVE",
"288 328 OFFCURVE",
"310 313 CURVE",
"346 288 OFFCURVE",
"418 186 OFFCURVE",
"448 161 CURVE",
"460 152 OFFCURVE",
"485 158 OFFCURVE",
"494 162 CURVE",
"500 164 OFFCURVE",
"503 173 OFFCURVE",
"503 180 CURVE",
"506 265 OFFCURVE",
"509 676 OFFCURVE",
"509 676 CURVE",
"481 663 LINE",
"481 663 OFFCURVE",
"479 710 OFFCURVE",
"486 724 CURVE",
"494 735 OFFCURVE",
"515 733 OFFCURVE",
"527 740 CURVE",
"543 748 OFFCURVE",
"561 767 OFFCURVE",
"579 774 CURVE",
"597 781 OFFCURVE",
"637 780 OFFCURVE",
"637 780 CURVE",
"637 237 LINE",
"637 237 OFFCURVE",
"466 63 OFFCURVE",
"420 28 CURVE",
"406 16 OFFCURVE",
"380 14 OFFCURVE",
"366 25 CURVE",
"330 53 OFFCURVE",
"237 165 OFFCURVE",
"206 192 CURVE",
"198 199 OFFCURVE",
"184 199 OFFCURVE",
"176 193 CURVE",
"150 170 OFFCURVE",
"75 80 OFFCURVE",
"46 59 CURVE",
"36 51 OFFCURVE",
"16 55 OFFCURVE",
"9 65 CURVE",
"2 75 OFFCURVE",
"-2 102 OFFCURVE",
"5 118 CURVE",
"41 210 OFFCURVE",
"187 521 OFFCURVE",
"227 616 CURVE",
"237 640 OFFCURVE",
"245 691 OFFCURVE",
"245 691 CURVE",
"363 755 LINE",
"425 782 LINE"
);
}
);
width = 638;
}
);
unicode = 0041;
},
{
glyphname = B;
lastChange = "2019-09-04 14:33:32 +0000";
layers = (
{
hints = (
{
horizontal = 1;
place = "{135, 46}";
type = Stem;
},
{
horizontal = 1;
place = "{423, 45}";
type = Stem;
}
);
layerId = "FC429158-EA96-492C-B709-B39596C20987";
paths = (
{
closed = 1;
nodes = (
"1 5 OFFCURVE",
"449 8 OFFCURVE",
"544 9 CURVE SMOOTH",
"572 9 OFFCURVE",
"585 47 OFFCURVE",
"587 73 CURVE",
"587 198 OFFCURVE",
"587 733 OFFCURVE",
"587 765 CURVE",
"587 765 OFFCURVE",
"531 771 OFFCURVE",
"506 758 CURVE",
"483 745 OFFCURVE",
"458 715 OFFCURVE",
"453 685 CURVE SMOOTH",
"444 629 OFFCURVE",
"445 418 OFFCURVE",
"444 418 CURVE SMOOTH",
"218 420 LINE",
"219 770 LINE",
"219 770 OFFCURVE",
"165 775 OFFCURVE",
"143 763 CURVE SMOOTH",
"119 750 OFFCURVE",
"79 731 OFFCURVE",
"77 699 CURVE",
"77 567 OFFCURVE",
"77 86 OFFCURVE",
"78 86 CURVE",
"78 86 OFFCURVE",
"27 69 OFFCURVE",
"17 55 CURVE SMOOTH",
"7 40 OFFCURVE",
"1 5 OFFCURVE",
"1 5 CURVE SMOOTH"
);
},
{
closed = 1;
nodes = (
"216 333 LINE",
"446 333 LINE",
"446 89 LINE",
"216 89 LINE"
);
}
);
width = 588;
}
);
unicode = 0042;
},
{
glyphname = C;
lastChange = "2019-09-04 17:59:50 +0000";
layers = (
{
layerId = "FC429158-EA96-492C-B709-B39596C20987";
paths = (
{
closed = 1;
nodes = (
"0 227 OFFCURVE",
"2 384 OFFCURVE",
"2 408 CURVE",
"460 408 LINE",
"460 408 OFFCURVE",
"461 566 OFFCURVE",
"461 624 CURVE SMOOTH",
"461 661 OFFCURVE",
"424 687 OFFCURVE",
"387 695 CURVE SMOOTH",
"328 706 OFFCURVE",
"211 704 OFFCURVE",
"157 685 CURVE SMOOTH",
"118 670 OFFCURVE",
"97 609 OFFCURVE",
"97 609 CURVE SMOOTH",
"1 608 LINE SMOOTH",
"1 608 OFFCURVE",
"37 737 OFFCURVE",
"91 763 CURVE SMOOTH",
"164 798 OFFCURVE",
"395 806 OFFCURVE",
"469 777 CURVE SMOOTH",
"503 763 OFFCURVE",
"573 746 OFFCURVE",
"573 690 CURVE SMOOTH",
"573 565 OFFCURVE",
"573 271 OFFCURVE",
"573 162 CURVE SMOOTH",
"573 115 OFFCURVE",
"488 11 OFFCURVE",
"440 9 CURVE SMOOTH",
"371 5 OFFCURVE",
"185 5 OFFCURVE",
"121 13 CURVE SMOOTH",
"58 21 OFFCURVE",
"2 102 OFFCURVE",
"1 167 CURVE SMOOTH"
);
},
{
closed = 1;
nodes = (
"105 139 OFFCURVE",
"143 115 OFFCURVE",
"182 115 CURVE SMOOTH",
"244 113 OFFCURVE",
"334 112 OFFCURVE",
"389 113 CURVE SMOOTH",
"421 114 OFFCURVE",
"460 138 OFFCURVE",
"460 174 CURVE SMOOTH",
"460 208 OFFCURVE",
"460 291 OFFCURVE",
"460 291 CURVE SMOOTH",
"104 291 LINE SMOOTH",
"104 291 OFFCURVE",
"103 211 OFFCURVE",
"104 176 CURVE SMOOTH"
);
}
);
width = 576;
}
);
unicode = 0043;
},
{
glyphname = D;
lastChange = "2019-09-04 18:08:20 +0000";
layers = (
{
layerId = "FC429158-EA96-492C-B709-B39596C20987";
paths = (
{
closed = 1;
nodes = (
"99 700 LINE",
"100 674 LINE",
"125 676 LINE",
"124 373 LINE",
"1 298 LINE",
"2 261 LINE",
"26 260 LINE",
"27 17 LINE",
"55 19 LINE",
"89 55 LINE",
"374 56 LINE",
"409 115 LINE",
"164 115 LINE",
"167 332 LINE",
"252 391 LINE",
"256 659 LINE",
"458 662 LINE",
"454 8 LINE",
"512 9 LINE",
"603 77 LINE",
"602 795 LINE",
"544 794 LINE",
"485 741 LINE",
"251 740 LINE",
"252 793 LINE",
"226 791 LINE"
);
}
);
width = 604;
}
);
unicode = 0044;
},
{
glyphname = E;
lastChange = "2019-09-05 00:40:52 +0000";
layers = (
{
layerId = "FC429158-EA96-492C-B709-B39596C20987";
paths = (
{
closed = 1;
nodes = (
"124 798 LINE",
"1 705 LINE",
"1 675 LINE",
"29 674 LINE",
"27 115 LINE",
"73 116 LINE",
"260 309 LINE",
"257 2 LINE",
"297 2 LINE",
"366 31 LINE",
"518 31 LINE",
"617 91 LINE",
"618 771 LINE",
"538 771 LINE",
"452 691 LINE",
"450 673 LINE",
"482 671 LINE",
"482 89 LINE",
"391 89 LINE",
"396 511 LINE",
"350 511 LINE",
"146 284 LINE",
"146 798 LINE"
);
}
);
width = 619;
}
);
unicode = 0045;
},
{
glyphname = F;
lastChange = "2019-09-05 00:44:38 +0000";
layers = (
{
layerId = "FC429158-EA96-492C-B709-B39596C20987";
paths = (
{
closed = 1;
nodes = (
"565 697 LINE",
"588 734 LINE",
"600 796 LINE",
"600 796 OFFCURVE",
"511 800 OFFCURVE",
"488 793 CURVE",
"473 789 OFFCURVE",
"455 745 OFFCURVE",
"455 752 CURVE",
"176 752 LINE",
"168 797 LINE",
"168 797 OFFCURVE",
"91 799 OFFCURVE",
"65 791 CURVE",
"40 785 OFFCURVE",
"1 754 OFFCURVE",
"1 754 CURVE",
"1 668 LINE",
"189 432 LINE",
"62 336 LINE",
"62 1 LINE",
"491 1 LINE",
"629 317 LINE",
"453 109 LINE",
"192 109 LINE",
"192 336 LINE",
"223 432 LINE",
"192 654 LINE",
"455 655 LINE",
"455 467 LINE",
"563 467 LINE"
);
}
);
width = 630;
}
);
unicode = 0046;
},
{
glyphname = G;
lastChange = "2019-09-05 01:08:27 +0000";
layers = (
{
layerId = "FC429158-EA96-492C-B709-B39596C20987";
paths = (
{
closed = 1;
nodes = (
"364 794 OFFCURVE",
"226 734 OFFCURVE",
"192 710 CURVE",
"128 666 OFFCURVE",
"51 563 OFFCURVE",
"22 472 CURVE",
"-3 395 OFFCURVE",
"-6 316 OFFCURVE",
"14 237 CURVE",
"34 159 OFFCURVE",
"151 53 OFFCURVE",
"214 25 CURVE",
"263 3 OFFCURVE",
"334 10 OFFCURVE",
"371 22 CURVE",
"402 33 OFFCURVE",
"448 42 OFFCURVE",
"449 71 CURVE",
"450 147 OFFCURVE",
"449 514 OFFCURVE",
"448 514 CURVE",
"489 580 LINE",
"522 539 LINE",
"522 9 LINE",
"608 9 LINE",
"608 621 LINE",
"489 621 LINE",
"427 550 LINE",
"354 518 LINE",
"351 174 LINE",
"351 174 OFFCURVE",
"200 192 OFFCURVE",
"166 250 CURVE",
"130 310 OFFCURVE",
"110 461 OFFCURVE",
"137 538 CURVE",
"165 613 OFFCURVE",
"187 639 OFFCURVE",
"255 697 CURVE",
"304 739 OFFCURVE",
"377 767 OFFCURVE",
"369 781 CURVE"
);
}
);
width = 609;
}
);
unicode = 0047;
},
{
glyphname = H;
lastChange = "2019-09-05 01:12:42 +0000";
layers = (
{
layerId = "FC429158-EA96-492C-B709-B39596C20987";
paths = (
{
closed = 1;
nodes = (
"2 719 LINE",
"2 702 LINE",
"49 692 LINE",
"46 15 LINE",
"150 67 LINE",
"157 692 LINE",
"479 693 LINE",
"479 693 OFFCURVE",
"480 504 OFFCURVE",
"472 433 CURVE",
"468 404 OFFCURVE",
"454 352 OFFCURVE",
"432 317 CURVE",
"407 276 OFFCURVE",
"372 260 OFFCURVE",
"372 260 CURVE",
"372 583 LINE",
"223 487 LINE",
"223 462 LINE",
"250 462 LINE",
"250 100 LINE",
"250 100 OFFCURVE",
"446 197 OFFCURVE",
"492 268 CURVE",
"523 315 OFFCURVE",
"585 425 OFFCURVE",
"588 472 CURVE",
"591 548 OFFCURVE",
"596 777 OFFCURVE",
"596 777 CURVE",
"544 744 LINE",
"168 744 LINE",
"123 801 LINE"
);
}
);
width = 597;
}
);
unicode = 0048;
},
{
glyphname = I;
lastChange = "2019-09-05 01:15:29 +0000";
layers = (
{
layerId = "FC429158-EA96-492C-B709-B39596C20987";
paths = (
{
closed = 1;
nodes = (
"356 793 LINE",
"231 707 LINE",
"229 683 LINE",
"261 683 LINE",
"258 115 LINE",
"148 115 LINE",
"155 478 LINE",
"126 478 LINE",
"1 387 LINE",
"1 364 LINE",
"30 363 LINE",
"30 11 LINE",
"71 11 LINE",
"136 60 LINE",
"457 60 LINE",
"589 333 LINE",
"385 115 LINE",
"385 793 LINE"
);
}
);
width = 590;
}
);
unicode = 0049;
},
{
glyphname = J;
lastChange = "2019-09-05 01:24:35 +0000";
layers = (
{
layerId = "FC429158-EA96-492C-B709-B39596C20987";
paths = (
{
closed = 1;
nodes = (
"1 558 OFFCURVE",
"1 264 OFFCURVE",
"1 264 CURVE",
"1 264 OFFCURVE",
"98 353 OFFCURVE",
"119 414 CURVE",
"137 470 OFFCURVE",
"130 596 OFFCURVE",
"130 632 CURVE",
"130 688 OFFCURVE",
"4 694 OFFCURVE",
"1 630 CURVE"
);
},
{
closed = 1;
nodes = (
"215 715 OFFCURVE",
"226 420 OFFCURVE",
"199 315 CURVE",
"176 227 OFFCURVE",
"53 149 OFFCURVE",
"53 88 CURVE",
"52 63 OFFCURVE",
"53 10 OFFCURVE",
"53 10 CURVE",
"531 9 LINE",
"628 89 LINE",
"628 755 LINE",
"551 755 LINE",
"466 671 LINE",
"466 89 LINE",
"186 89 LINE",
"186 89 OFFCURVE",
"302 225 OFFCURVE",
"319 309 CURVE",
"343 426 OFFCURVE",
"331 793 OFFCURVE",
"331 793 CURVE",
"215 715 LINE"
);
}
);
width = 629;
}
);
unicode = 004A;
},
{
glyphname = K;
lastChange = "2019-09-05 01:29:07 +0000";
layers = (
{
layerId = "FC429158-EA96-492C-B709-B39596C20987";
paths = (
{
closed = 1;
nodes = (
"507 796 LINE",
"450 710 LINE",
"197 710 LINE",
"164 755 LINE",
"164 755 OFFCURVE",
"15 656 OFFCURVE",
"19 661 CURVE",
"24 665 OFFCURVE",
"416 663 OFFCURVE",
"415 665 CURVE",
"416 596 LINE",
"57 493 LINE",
"57 116 LINE",
"1 38 LINE",
"190 121 LINE",
"190 464 LINE",
"416 538 LINE",
"418 8 LINE",
"636 156 LINE",
"555 142 LINE",
"555 796 LINE"
);
}
);
width = 637;
}
);
unicode = 004B;
},
{
glyphname = L;
lastChange = "2019-09-05 14:27:31 +0000";
layers = (
{
layerId = "FC429158-EA96-492C-B709-B39596C20987";
paths = (
{
closed = 1;
nodes = (
"1 713 LINE",
"1 695 LINE",
"33 695 LINE",
"19 16 LINE",
"212 159 LINE",
"138 136 LINE",
"148 794 LINE"
);
},
{
closed = 1;
nodes = (
"197 713 LINE",
"197 695 LINE",
"230 695 LINE",
"219 16 LINE",
"413 159 LINE",
"332 136 LINE",
"351 794 LINE"
);
}
);
width = 414;
}
);
unicode = 004C;
},
{
glyphname = M;
lastChange = "2019-09-05 14:33:24 +0000";
layers = (
{
layerId = "FC429158-EA96-492C-B709-B39596C20987";
paths = (
{
closed = 1;
nodes = (
"36 667 LINE",
"36 14 LINE",
"89 40 LINE",
"468 40 LINE",
"468 40 OFFCURVE",
"469 14 OFFCURVE",
"469 13 CURVE",
"468 12 OFFCURVE",
"502 14 OFFCURVE",
"502 13 CURVE",
"592 77 LINE",
"592 699 LINE",
"247 483 LINE",
"247 463 LINE",
"261 463 LINE",
"263 112 LINE",
"175 112 LINE",
"176 791 LINE",
"152 792 LINE",
"2 682 LINE",
"1 666 LINE"
);
},
{
closed = 1;
nodes = (
"381 524 LINE",
"473 577 LINE",
"473 112 LINE",
"378 112 LINE"
);
}
);
width = 593;
}
);
unicode = 004D;
},
{
glyphname = N;
lastChange = "2019-09-05 14:38:36 +0000";
layers = (
{
layerId = "FC429158-EA96-492C-B709-B39596C20987";
paths = (
{
closed = 1;
nodes = (
"122 794 LINE",
"1 692 LINE",
"1 677 LINE",
"24 680 LINE",
"24 7 LINE",
"50 7 LINE",
"486 602 LINE",
"486 63 LINE",
"309 63 LINE",
"309 89 LINE",
"240 90 LINE",
"147 6 LINE",
"491 7 LINE",
"621 77 LINE",
"621 795 LINE",
"579 794 LINE",
"141 230 LINE",
"145 794 LINE"
);
}
);
width = 622;
}
);
unicode = 004E;
},
{
glyphname = O;
lastChange = "2019-09-05 14:45:03 +0000";
layers = (
{
layerId = "FC429158-EA96-492C-B709-B39596C20987";
paths = (
{
closed = 1;
nodes = (
"47 140 OFFCURVE",
"164 36 OFFCURVE",
"256 17 CURVE SMOOTH",
"353 -3 OFFCURVE",
"453 2 OFFCURVE",
"535 17 CURVE SMOOTH",
"619 32 OFFCURVE",
"717 94 OFFCURVE",
"741 184 CURVE SMOOTH",
"766 277 OFFCURVE",
"765 461 OFFCURVE",
"741 561 CURVE SMOOTH",
"717 659 OFFCURVE",
"618 743 OFFCURVE",
"532 768 CURVE SMOOTH",
"447 793 OFFCURVE",
"349 795 OFFCURVE",
"259 768 CURVE SMOOTH",
"172 742 OFFCURVE",
"45 649 OFFCURVE",
"22 562 CURVE SMOOTH",
"-1 475 OFFCURVE",
"-1 314 OFFCURVE",
"22 231 CURVE SMOOTH"
);
},
{
closed = 1;
nodes = (
"185 442 OFFCURVE",
"181 541 OFFCURVE",
"185 601 CURVE SMOOTH",
"189 656 OFFCURVE",
"248 713 OFFCURVE",
"299 731 CURVE SMOOTH",
"351 749 OFFCURVE",
"432 748 OFFCURVE",
"481 731 CURVE SMOOTH",
"529 714 OFFCURVE",
"580 659 OFFCURVE",
"581 608 CURVE SMOOTH",
"582 559 OFFCURVE",
"581 442 OFFCURVE",
"580 442 CURVE SMOOTH",
"181 442 LINE SMOOTH"
);
},
{
closed = 1;
nodes = (
"581 344 LINE",
"581 344 OFFCURVE",
"584 242 OFFCURVE",
"581 193 CURVE SMOOTH",
"578 141 OFFCURVE",
"526 89 OFFCURVE",
"479 67 CURVE SMOOTH",
"431 45 OFFCURVE",
"350 44 OFFCURVE",
"300 67 CURVE SMOOTH",
"252 89 OFFCURVE",
"186 147 OFFCURVE",
"185 197 CURVE SMOOTH",
"184 258 OFFCURVE",
"185 344 OFFCURVE",
"185 344 CURVE"
);
}
);
width = 764;
}
);
unicode = 004F;
},
{
glyphname = P;
lastChange = "2019-09-05 14:52:21 +0000";
layers = (
{
layerId = "FC429158-EA96-492C-B709-B39596C20987";
paths = (
{
closed = 1;
nodes = (
"1 7 LINE",
"626 7 LINE",
"626 93 LINE",
"147 93 LINE",
"147 226 LINE",
"147 226 OFFCURVE",
"406 225 OFFCURVE",
"498 226 CURVE",
"552 227 OFFCURVE",
"621 288 OFFCURVE",
"634 343 CURVE",
"648 401 OFFCURVE",
"667 435 OFFCURVE",
"651 496 CURVE",
"634 563 OFFCURVE",
"540 693 OFFCURVE",
"494 715 CURVE",
"483 720 OFFCURVE",
"484 781 OFFCURVE",
"484 781 CURVE",
"318 675 LINE",
"318 675 OFFCURVE",
"475 532 OFFCURVE",
"492 479 CURVE",
"505 436 OFFCURVE",
"528 387 OFFCURVE",
"514 357 CURVE",
"505 338 OFFCURVE",
"496 311 OFFCURVE",
"475 310 CURVE",
"426 304 OFFCURVE",
"269 314 OFFCURVE",
"214 324 CURVE",
"187 330 OFFCURVE",
"147 334 OFFCURVE",
"147 370 CURVE",
"146 447 OFFCURVE",
"147 789 OFFCURVE",
"144 790 CURVE",
"1 789 LINE"
);
}
);
width = 658;
}
);
unicode = 0050;
},
{
glyphname = Q;
lastChange = "2019-09-05 14:55:55 +0000";
layers = (
{
layerId = "FC429158-EA96-492C-B709-B39596C20987";
paths = (
{
closed = 1;
nodes = (
"5 682 OFFCURVE",
"5 626 OFFCURVE",
"18 601 CURVE SMOOTH",
"37 566 OFFCURVE",
"122 473 OFFCURVE",
"122 473 CURVE SMOOTH",
"122 473 OFFCURVE",
"29 419 OFFCURVE",
"13 373 CURVE SMOOTH",
"-3 328 OFFCURVE",
"-7 246 OFFCURVE",
"26 195 CURVE SMOOTH",
"69 131 OFFCURVE",
"242 88 OFFCURVE",
"318 86 CURVE SMOOTH",
"372 86 OFFCURVE",
"472 93 OFFCURVE",
"473 93 CURVE",
"472 11 LINE",
"628 11 LINE",
"628 787 LINE",
"5 682 LINE"
);
},
{
closed = 1;
nodes = (
"132 400 OFFCURVE",
"231 484 OFFCURVE",
"231 484 CURVE",
"139 648 LINE",
"472 711 LINE",
"472 174 LINE",
"472 174 OFFCURVE",
"301 164 OFFCURVE",
"243 177 CURVE SMOOTH",
"197 189 OFFCURVE",
"152 213 OFFCURVE",
"132 246 CURVE SMOOTH",
"112 279 OFFCURVE",
"108 325 OFFCURVE",
"120 362 CURVE SMOOTH"
);
}
);
width = 629;
}
);
unicode = 0051;
},
{
glyphname = R;
lastChange = "2019-09-05 14:58:20 +0000";
layers = (
{
layerId = "FC429158-EA96-492C-B709-B39596C20987";
paths = (
{
closed = 1;
nodes = (
"625 794 OFFCURVE",
"416 787 OFFCURVE",
"337 727 CURVE",
"241 653 OFFCURVE",
"98 438 OFFCURVE",
"46 349 CURVE",
"19 304 OFFCURVE",
"25 194 OFFCURVE",
"25 194 CURVE",
"175 231 LINE",
"175 231 OFFCURVE",
"307 570 OFFCURVE",
"362 627 CURVE",
"387 651 OFFCURVE",
"453 662 OFFCURVE",
"453 662 CURVE",
"393 262 LINE",
"499 285 LINE",
"499 285 OFFCURVE",
"487 83 OFFCURVE",
"453 65 CURVE",
"426 50 OFFCURVE",
"130 63 OFFCURVE",
"130 63 CURVE",
"120 117 LINE",
"1 3 LINE",
"496 3 LINE",
"496 3 OFFCURVE",
"580 27 OFFCURVE",
"598 70 CURVE",
"620 121 OFFCURVE",
"625 309 OFFCURVE",
"625 309 CURVE",
"671 323 LINE",
"671 403 LINE",
"556 378 LINE",
"564 681 LINE",
"625 693 LINE",
"625 794 LINE"
);
}
);
width = 672;
}
);
unicode = 0052;
},
{
glyphname = S;
lastChange = "2019-09-05 15:03:36 +0000";
layers = (
{
layerId = "FC429158-EA96-492C-B709-B39596C20987";
paths = (
{
closed = 1;
nodes = (
"1 708 LINE",
"1 686 LINE",
"29 685 LINE",
"29 49 LINE",
"19 1 LINE",
"149 71 LINE",
"149 675 LINE",
"440 675 LINE",
"440 356 LINE",
"572 440 LINE",
"572 680 LINE",
"580 754 LINE",
"509 714 LINE",
"149 714 LINE",
"149 797 LINE"
);
},
{
closed = 1;
nodes = (
"223 507 LINE",
"223 20 LINE",
"262 36 LINE",
"262 36 OFFCURVE",
"518 36 OFFCURVE",
"518 36 CURVE",
"517 36 OFFCURVE",
"610 97 OFFCURVE",
"610 94 CURVE",
"610 95 OFFCURVE",
"359 97 OFFCURVE",
"359 97 CURVE",
"359 97 OFFCURVE",
"359 595 OFFCURVE",
"365 595 CURVE"
);
}
);
width = 611;
}
);
unicode = 0053;
},
{
glyphname = T;
lastChange = "2019-09-05 15:08:18 +0000";
layers = (
{
layerId = "FC429158-EA96-492C-B709-B39596C20987";
paths = (
{
closed = 1;
nodes = (
"435 4 LINE",
"584 95 LINE",
"584 95 OFFCURVE",
"591 800 OFFCURVE",
"591 804 CURVE SMOOTH",
"591 805 OFFCURVE",
"475 725 OFFCURVE",
"475 725 CURVE SMOOTH",
"164 725 LINE",
"164 800 LINE",
"3 700 LINE",
"3 670 LINE",
"45 669 LINE",
"45 247 LINE",
"164 248 LINE",
"437 449 LINE",
"437 65 LINE",
"155 65 LINE SMOOTH",
"155 65 OFFCURVE",
"124 92 OFFCURVE",
"127 95 CURVE",
"1 4 LINE"
);
},
{
closed = 1;
nodes = (
"164 671 LINE",
"164 671 OFFCURVE",
"168 672 OFFCURVE",
"168 672 CURVE",
"168 671 LINE",
"176 669 OFFCURVE",
"437 672 OFFCURVE",
"436 672 CURVE",
"437 523 LINE",
"164 337 LINE"
);
}
);
width = 592;
}
);
unicode = 0054;
},
{
glyphname = U;
lastChange = "2019-09-05 15:10:53 +0000";
layers = (
{
layerId = "FC429158-EA96-492C-B709-B39596C20987";
paths = (
{
closed = 1;
nodes = (
"650 685 OFFCURVE",
"590 733 OFFCURVE",
"552 759 CURVE",
"488 801 OFFCURVE",
"190 814 OFFCURVE",
"108 753 CURVE",
"57 717 OFFCURVE",
"1 648 OFFCURVE",
"1 586 CURVE",
"2 458 OFFCURVE",
"1 35 OFFCURVE",
"5 35 CURVE",
"5 35 OFFCURVE",
"156 97 OFFCURVE",
"156 96 CURVE",
"154 95 OFFCURVE",
"154 493 OFFCURVE",
"156 590 CURVE",
"157 625 OFFCURVE",
"185 675 OFFCURVE",
"221 691 CURVE",
"270 716 OFFCURVE",
"409 715 OFFCURVE",
"454 691 CURVE",
"490 672 OFFCURVE",
"512 618 OFFCURVE",
"512 592 CURVE",
"513 488 OFFCURVE",
"514 72 OFFCURVE",
"514 72 CURVE",
"393 72 LINE",
"392 469 LINE",
"314 469 LINE",
"236 427 LINE",
"236 1 LINE",
"652 1 LINE",
"652 1 OFFCURVE",
"656 463 OFFCURVE",
"652 593 CURVE"
);
}
);
width = 655;
}
);
unicode = 0055;
},
{
glyphname = V;
lastChange = "2019-09-05 15:23:19 +0000";
layers = (
{
layerId = "FC429158-EA96-492C-B709-B39596C20987";
paths = (
{
closed = 1;
nodes = (
"1 675 LINE",
"1 1 LINE",
"559 1 LINE",
"559 81 LINE",
"141 81 LINE",
"580 663 LINE",
"580 796 LINE",
"466 796 LINE",
"466 731 LINE",
"139 300 LINE",
"141 796 LINE",
"82 796 LINE"
);
}
);
width = 581;
}
);
unicode = 0056;
},
{
glyphname = W;
lastChange = "2019-09-05 15:32:30 +0000";
layers = (
{
layerId = "FC429158-EA96-492C-B709-B39596C20987";
paths = (
{
closed = 1;
nodes = (
"2 700 LINE",
"1 677 LINE",
"35 677 LINE",
"35 1 LINE",
"75 1 LINE",
"258 252 LINE",
"258 136 LINE",
"299 136 LINE",
"414 241 LINE",
"414 444 LINE",
"507 559 LINE",
"507 68 LINE",
"384 68 LINE",
"334 99 LINE",
"193 1 LINE",
"531 1 LINE",
"645 96 LINE",
"645 734 LINE",
"592 786 LINE",
"414 565 LINE",
"414 626 LINE",
"237 523 LINE",
"237 492 LINE",
"258 492 LINE",
"258 372 LINE",
"174 262 LINE",
"174 794 LINE",
"136 794 LINE"
);
}
);
width = 646;
}
);
unicode = 0057;
},
{
glyphname = X;
lastChange = "2019-09-05 15:35:44 +0000";
layers = (
{
layerId = "FC429158-EA96-492C-B709-B39596C20987";
paths = (
{
closed = 1;
nodes = (
"88 791 LINE",
"2 694 LINE",
"1 637 LINE",
"72 637 LINE",
"72 1 LINE",
"163 1 LINE",
"567 718 LINE",
"567 791 LINE",
"496 791 LINE",
"168 243 LINE",
"181 791 LINE"
);
},
{
closed = 1;
nodes = (
"200 1 LINE",
"706 1 LINE",
"706 80 LINE",
"335 80 LINE",
"593 553 LINE",
"521 553 LINE"
);
}
);
width = 707;
}
);
unicode = 0058;
},
{
glyphname = Y;
lastChange = "2019-09-05 15:38:45 +0000";
layers = (
{
layerId = "FC429158-EA96-492C-B709-B39596C20987";
paths = (
{
closed = 1;
nodes = (
"489 789 LINE",
"489 789 OFFCURVE",
"472 750 OFFCURVE",
"468 726 CURVE",
"461 692 OFFCURVE",
"462 621 OFFCURVE",
"466 590 CURVE",
"468 572 OFFCURVE",
"488 541 OFFCURVE",
"488 541 CURVE",
"482 121 LINE",
"210 121 LINE",
"358 277 LINE",
"358 277 OFFCURVE",
"206 384 OFFCURVE",
"203 440 CURVE",
"200 483 OFFCURVE",
"202 524 OFFCURVE",
"203 569 CURVE",
"203 640 OFFCURVE",
"440 789 OFFCURVE",
"440 789 CURVE",
"440 789 OFFCURVE",
"305 788 OFFCURVE",
"253 767 CURVE",
"163 730 OFFCURVE",
"41 630 OFFCURVE",
"42 563 CURVE",
"43 518 OFFCURVE",
"43 479 OFFCURVE",
"45 437 CURVE",
"49 389 OFFCURVE",
"171 277 OFFCURVE",
"171 277 CURVE",
"1 1 LINE",
"559 1 LINE",
"595 42 LINE",
"595 791 LINE"
);
}
);
width = 596;
}
);
unicode = 0059;
},
{
glyphname = Z;
lastChange = "2019-09-05 15:41:28 +0000";
layers = (
{
layerId = "FC429158-EA96-492C-B709-B39596C20987";
paths = (
{
closed = 1;
nodes = (
"182 797 LINE",
"1 598 LINE",
"92 598 LINE",
"94 100 LINE",
"40 1 LINE",
"40 1 OFFCURVE",
"454 0 OFFCURVE",
"555 1 CURVE",
"630 2 OFFCURVE",
"680 52 OFFCURVE",
"683 124 CURVE",
"684 189 OFFCURVE",
"529 398 OFFCURVE",
"529 398 CURVE",
"529 398 OFFCURVE",
"657 600 OFFCURVE",
"660 651 CURVE",
"666 757 OFFCURVE",
"432 797 OFFCURVE",
"432 797 CURVE",
"391 643 LINE",
"391 643 OFFCURVE",
"521 594 OFFCURVE",
"519 548 CURVE",
"517 502 OFFCURVE",
"379 365 OFFCURVE",
"379 365 CURVE",
"379 365 OFFCURVE",
"520 197 OFFCURVE",
"525 145 CURVE",
"527 111 OFFCURVE",
"493 106 OFFCURVE",
"493 107 CURVE",
"238 106 LINE",
"238 797 LINE"
);
}
);
width = 684;
}
);
unicode = 005A;
},
{
glyphname = a;
lastChange = "2019-09-07 10:58:07 +0000";
layers = (
{
layerId = "FC429158-EA96-492C-B709-B39596C20987";
paths = (
{
closed = 1;
nodes = (
"457 87 LINE",
"352 1 LINE",
"1 1 LINE",
"1 1 OFFCURVE",
"71 275 OFFCURVE",
"115 356 CURVE",
"148 417 OFFCURVE",
"270 496 OFFCURVE",
"270 496 CURVE",
"270 165 LINE",
"174 116 LINE",
"174 306 LINE",
"94 66 LINE",
"349 66 LINE",
"349 66 OFFCURVE",
"349 391 OFFCURVE",
"349 391 CURVE",
"349 392 OFFCURVE",
"312 420 OFFCURVE",
"312 420 CURVE",
"457 510 LINE"
);
}
);
width = 458;
}
);
unicode = 0061;
},
{
glyphname = b;
lastChange = "2019-09-07 11:00:55 +0000";
layers = (
{
layerId = "FC429158-EA96-492C-B709-B39596C20987";
paths = (
{
closed = 1;
nodes = (
"66 409 LINE",
"66 285 LINE",
"228 285 LINE",
"228 677 LINE",
"298 677 LINE",
"298 1 LINE",
"1 1 LINE",
"1 408 LINE"
);
},
{
closed = 1;
nodes = (
"67 80 LINE",
"228 80 LINE",
"228 193 LINE",
"66 193 LINE"
);
}
);
width = 299;
}
);
unicode = 0062;
},
{
glyphname = c;
lastChange = "2019-09-07 11:03:21 +0000";
layers = (
{
layerId = "FC429158-EA96-492C-B709-B39596C20987";
paths = (
{
closed = 1;
nodes = (
"344 239 LINE",
"344 239 OFFCURVE",
"333 431 OFFCURVE",
"204 441 CURVE SMOOTH",
"140 446 OFFCURVE",
"100 342 OFFCURVE",
"100 342 CURVE SMOOTH",
"20 343 LINE SMOOTH",
"20 343 OFFCURVE",
"52 503 OFFCURVE",
"226 499 CURVE SMOOTH",
"383 495 OFFCURVE",
"461 360 OFFCURVE",
"464 254 CURVE SMOOTH",
"467 160 OFFCURVE",
"374 1 OFFCURVE",
"242 3 CURVE SMOOTH",
"-6 7 OFFCURVE",
"1 261 OFFCURVE",
"1 261 CURVE"
);
},
{
closed = 1;
nodes = (
"96 222 OFFCURVE",
"126 63 OFFCURVE",
"244 53 CURVE SMOOTH",
"367 43 OFFCURVE",
"346 206 OFFCURVE",
"346 206 CURVE",
"96 222 LINE"
);
}
);
width = 465;
}
);
unicode = 0063;
},
{
glyphname = d;
lastChange = "2019-09-07 11:10:37 +0000";
layers = (
{
layerId = "FC429158-EA96-492C-B709-B39596C20987";
paths = (
{
closed = 1;
nodes = (
"470 39 LINE",
"351 -34 LINE",
"351 393 LINE",
"220 392 LINE",
"220 289 LINE",
"125 227 LINE",
"125 64 LINE",
"335 65 LINE",
"317 10 LINE",
"40 10 LINE",
"10 1 LINE",
"17 41 LINE",
"17 176 LINE",
"1 176 LINE",
"90 239 LINE",
"90 406 LINE",
"76 420 LINE",
"220 499 LINE",
"220 453 LINE",
"403 453 LINE",
"470 494 LINE"
);
}
);
width = 471;
}
);
unicode = 0064;
},
{
glyphname = e;
lastChange = "2019-09-07 11:17:51 +0000";
layers = (
{
layerId = "FC429158-EA96-492C-B709-B39596C20987";
paths = (
{
closed = 1;
nodes = (
"448 78 LINE",
"338 6 LINE",
"338 27 LINE",
"243 29 LINE",
"178 -12 LINE",
"178 162 LINE",
"118 82 LINE",
"118 60 LINE",
"27 5 LINE",
"29 400 LINE",
"1 400 LINE",
"118 484 LINE",
"118 139 LINE",
"178 222 LINE",
"178 296 LINE",
"276 354 LINE",
"270 69 LINE",
"338 69 LINE",
"338 400 LINE",
"309 400 LINE",
"448 494 LINE"
);
}
);
width = 449;
}
);
unicode = 0065;
},
{
glyphname = f;
lastChange = "2019-09-08 13:19:16 +0000";
layers = (
{
layerId = "FC429158-EA96-492C-B709-B39596C20987";
paths = (
{
closed = 1;
nodes = (
"428 289 LINE",
"345 289 LINE",
"345 428 LINE",
"116 428 LINE",
"116 357 LINE",
"141 285 LINE",
"83 179 LINE",
"83 90 LINE",
"336 90 LINE",
"428 163 LINE",
"356 1 LINE",
"1 1 LINE",
"1 211 LINE",
"92 285 LINE",
"1 502 LINE",
"428 502 LINE"
);
}
);
width = 429;
}
);
unicode = 0066;
},
{
glyphname = g;
lastChange = "2019-09-08 13:36:10 +0000";
layers = (
{
layerId = "FC429158-EA96-492C-B709-B39596C20987";
paths = (
{
closed = 1;
nodes = (
"457 34 LINE",
"340 -35 LINE",
"340 353 LINE",
"293 327 LINE",
"293 62 LINE",
"184 8 LINE",
"184 8 OFFCURVE",
"30 15 OFFCURVE",
"3 245 CURVE",
"-21 446 OFFCURVE",
"224 501 OFFCURVE",
"287 498 CURVE",
"313 497 OFFCURVE",
"312 498 OFFCURVE",
"313 490 CURVE",
"313 484 OFFCURVE",
"299 480 OFFCURVE",
"277 478 CURVE",
"249 474 OFFCURVE",
"84 416 OFFCURVE",
"94 265 CURVE",
"102 153 OFFCURVE",
"187 138 OFFCURVE",
"184 138 CURVE",
"187 280 LINE",
"166 291 LINE",
"424 465 LINE",
"457 465 LINE"
);
}
);
width = 458;
}
);
unicode = 0067;
},
{
glyphname = h;
lastChange = "2019-09-08 13:43:21 +0000";
layers = (
{
layerId = "FC429158-EA96-492C-B709-B39596C20987";
paths = (
{
closed = 1;
nodes = (
"122 532 LINE",
"122 470 LINE",
"450 470 LINE",
"484 486 LINE",
"484 486 OFFCURVE",
"496 332 OFFCURVE",
"354 163 CURVE SMOOTH",
"302 101 OFFCURVE",
"189 64 OFFCURVE",
"189 57 CURVE",
"189 362 LINE",
"166 362 LINE",
"257 424 LINE",
"122 424 LINE",
"122 39 LINE",
"27 1 LINE",
"27 424 LINE",
"1 435 LINE"
);
},
{
closed = 1;
nodes = (
"287 182 OFFCURVE",
"348 223 OFFCURVE",
"354 286 CURVE SMOOTH",
"358 331 OFFCURVE",
"357 424 OFFCURVE",
"357 424 CURVE SMOOTH",
"287 424 LINE",
"282 182 LINE"
);
}
);
width = 485;
}
);
unicode = 0068;
},
{
glyphname = i;
lastChange = "2019-09-08 13:47:54 +0000";
layers = (
{
layerId = "FC429158-EA96-492C-B709-B39596C20987";
paths = (
{
closed = 1;
nodes = (
"198 77 LINE",
"1 -27 LINE",
"89 68 LINE",
"89 559 LINE",
"48 559 LINE",
"167 646 LINE",
"198 646 LINE"
);
}
);
width = 199;
}
);
unicode = 0069;
},
{
glyphname = j;
lastChange = "2019-09-08 13:52:54 +0000";
layers = (
{
layerId = "FC429158-EA96-492C-B709-B39596C20987";
paths = (
{
closed = 1;
nodes = (
"472 1 LINE",
"2 1 LINE",
"2 1 OFFCURVE",
"183 164 OFFCURVE",
"183 208 CURVE",
"183 271 OFFCURVE",
"183 458 OFFCURVE",
"185 458 CURVE",
"167 458 LINE",
"270 544 LINE",
"270 544 OFFCURVE",
"270 279 OFFCURVE",
"270 208 CURVE",
"271 178 OFFCURVE",
"139 71 OFFCURVE",
"139 71 CURVE",
"368 71 LINE",
"368 342 LINE",
"337 341 LINE",
"472 443 LINE"
);
},
{
closed = 1;
nodes = (
"115 395 OFFCURVE",
"117 285 OFFCURVE",
"96 257 CURVE",
"77 231 OFFCURVE",
"2 166 OFFCURVE",
"1 166 CURVE",
"1 166 OFFCURVE",
"0 272 OFFCURVE",
"2 315 CURVE",
"3 345 OFFCURVE",
"115 395 OFFCURVE",
"115 395 CURVE"
);
}
);
width = 473;
}
);
unicode = 006A;
},
{
glyphname = k;
lastChange = "2019-09-08 13:56:46 +0000";
layers = (
{
layerId = "FC429158-EA96-492C-B709-B39596C20987";
paths = (
{
closed = 1;
nodes = (
"379 144 LINE",
"471 176 LINE",
"274 19 LINE",
"274 345 LINE",
"139 285 LINE",
"139 101 LINE",
"139 101 OFFCURVE",
"152 95 OFFCURVE",
"152 90 CURVE",
"153 81 OFFCURVE",
"145 72 OFFCURVE",
"145 72 CURVE",
"145 72 OFFCURVE",
"32 -7 OFFCURVE",
"8 -22 CURVE",
"5 -23 OFFCURVE",
"0 -17 OFFCURVE",
"1 -13 CURVE",
"7 -4 OFFCURVE",
"47 36 OFFCURVE",
"47 36 CURVE",
"47 285 LINE",
"274 392 LINE",
"274 414 LINE",
"5 413 LINE",
"105 493 LINE",
"140 451 LINE",
"274 451 LINE",
"379 532 LINE"
);
}
);
width = 472;
}
);
unicode = 006B;
},
{
glyphname = l;
lastChange = "2019-09-08 14:07:15 +0000";
layers = (
{
layerId = "FC429158-EA96-492C-B709-B39596C20987";
paths = (
{
closed = 1;
nodes = (
"380 148 LINE",
"487 180 LINE",
"255 1 LINE",
"255 145 LINE",
"52 1 LINE",
"52 522 LINE",
"1 522 LINE",
"154 644 LINE",
"175 644 LINE",
"174 148 LINE",
"255 173 LINE",
"255 522 LINE",
"220 522 LINE",
"372 644 LINE",
"394 644 LINE"
);
}
);
width = 488;
}
);
unicode = 006C;
},
{
glyphname = m;
lastChange = "2019-09-08 14:10:54 +0000";
layers = (
{
layerId = "FC429158-EA96-492C-B709-B39596C20987";
paths = (
{
closed = 1;
nodes = (
"361 465 LINE",
"397 465 LINE",
"391 48 LINE",
"464 48 LINE",
"464 310 LINE",
"426 322 LINE",
"725 558 LINE",
"748 558 LINE",
"748 37 LINE",
"637 -42 LINE",
"637 1 LINE",
"331 1 LINE",
"290 -32 LINE",
"290 351 LINE",
"242 363 LINE"
);
},
{
closed = 1;
nodes = (
"618 48 LINE",
"640 63 LINE",
"641 410 LINE",
"596 410 LINE",
"570 391 LINE",
"570 48 LINE"
);
}
);
width = 1000;
}
);
unicode = 006D;
},
{
glyphname = n;
lastChange = "2019-09-08 14:17:29 +0000";
layers = (
{
layerId = "FC429158-EA96-492C-B709-B39596C20987";
paths = (
{
closed = 1;
nodes = (
"470 74 LINE",
"366 1 LINE",
"77 1 LINE",
"181 97 LINE",
"228 50 LINE",
"358 50 LINE",
"358 353 LINE",
"23 11 LINE",
"22 395 LINE",
"1 413 LINE",
"131 499 LINE",
"131 158 LINE",
"358 390 LINE",
"358 422 LINE",
"473 499 LINE"
);
}
);
width = 474;
}
);
unicode = 006E;
},
{
glyphname = o;
lastChange = "2019-09-08 14:26:58 +0000";
layers = (
{
layerId = "FC429158-EA96-492C-B709-B39596C20987";
paths = (
{
closed = 1;
nodes = (
"2 373 OFFCURVE",
"67 494 OFFCURVE",
"230 494 CURVE SMOOTH",
"413 494 OFFCURVE",
"451 373 OFFCURVE",
"450 239 CURVE SMOOTH",
"449 89 OFFCURVE",
"370 1 OFFCURVE",
"230 1 CURVE SMOOTH",
"95 1 OFFCURVE",
"0 118 OFFCURVE",
"1 239 CURVE SMOOTH"
);
},
{
closed = 1;
nodes = (
"338 280 LINE",
"338 280 OFFCURVE",
"339 337 OFFCURVE",
"339 369 CURVE SMOOTH",
"339 411 OFFCURVE",
"281 463 OFFCURVE",
"230 463 CURVE SMOOTH",
"176 463 OFFCURVE",
"116 409 OFFCURVE",
"116 369 CURVE SMOOTH",
"116 347 OFFCURVE",
"116 280 OFFCURVE",
"116 283 CURVE"
);
},
{
closed = 1;
nodes = (
"118 72 OFFCURVE",
"182 33 OFFCURVE",
"230 33 CURVE SMOOTH",
"291 33 OFFCURVE",
"340 71 OFFCURVE",
"340 106 CURVE SMOOTH",
"340 143 OFFCURVE",
"339 210 OFFCURVE",
"339 210 CURVE SMOOTH",
"119 210 LINE SMOOTH",
"119 210 OFFCURVE",
"118 145 OFFCURVE",
"118 106 CURVE SMOOTH"
);
}
);
width = 451;
}
);
unicode = 006F;
},
{
glyphname = p;
lastChange = "2019-09-12 12:39:06 +0000";
layers = (
{
layerId = "FC429158-EA96-492C-B709-B39596C20987";
paths = (
{
closed = 1;
nodes = (
"360 485 OFFCURVE",
"321 437 OFFCURVE",
"335 418 CURVE",
"344 403 OFFCURVE",
"374 365 OFFCURVE",
"409 320 CURVE",
"432 289 OFFCURVE",
"431 218 OFFCURVE",
"415 193 CURVE",
"402 167 OFFCURVE",
"353 129 OFFCURVE",
"322 128 CURVE",
"274 127 OFFCURVE",
"122 128 OFFCURVE",
"122 128 CURVE",
"122 56 LINE",
"404 55 LINE",
"404 1 LINE",
"1 1 LINE",
"1 487 LINE",
"122 555 LINE",
"122 200 LINE",
"122 200 OFFCURVE",
"300 198 OFFCURVE",
"329 200 CURVE",
"388 200 OFFCURVE",
"259 338 OFFCURVE",
"225 373 CURVE",
"193 409 OFFCURVE",
"360 485 OFFCURVE",
"360 485 CURVE"
);
}
);
width = 428;
}
);
unicode = 0070;
},
{
glyphname = q;
lastChange = "2019-09-12 12:44:49 +0000";
layers = (
{
layerId = "FC429158-EA96-492C-B709-B39596C20987";
paths = (
{
closed = 1;
nodes = (
"423 23 LINE",
"357 23 LINE",
"320 91 LINE",
"345 123 LINE",
"345 425 LINE",
"121 425 LINE",
"176 290 LINE",
"176 290 OFFCURVE",
"106 195 OFFCURVE",
"108 146 CURVE",
"109 107 OFFCURVE",
"143 75 OFFCURVE",
"167 75 CURVE",
"207 75 OFFCURVE",
"292 75 OFFCURVE",
"292 74 CURVE",
"292 0 LINE",
"292 0 OFFCURVE",
"176 0 OFFCURVE",
"124 1 CURVE",
"72 2 OFFCURVE",
"1 76 OFFCURVE",
"2 120 CURVE",
"2 183 OFFCURVE",
"70 254 OFFCURVE",
"70 254 CURVE",
"70 254 OFFCURVE",
"5 360 OFFCURVE",
"1 401 CURVE",
"-1 442 OFFCURVE",
"25 497 OFFCURVE",
"62 498 CURVE",
"112 498 OFFCURVE",
"356 498 OFFCURVE",
"356 498 CURVE",
"423 511 LINE"
);
}
);
width = 424;
}
);
unicode = 0071;
},
{
glyphname = r;
lastChange = "2019-09-12 12:47:33 +0000";
layers = (
{
layerId = "FC429158-EA96-492C-B709-B39596C20987";
paths = (
{
closed = 1;
nodes = (
"108 546 LINE",
"108 333 LINE",
"126 333 LINE",
"195 382 LINE",
"195 89 LINE",
"19 1 LINE",
"17 28 LINE",
"108 75 LINE",
"108 295 LINE",
"91 296 LINE",
"14 244 LINE",
"14 489 LINE",
"1 501 LINE",
"102 578 LINE",
"127 579 LINE"
);
}
);
width = 196;
}
);
unicode = 0072;
},
{
glyphname = s;
lastChange = "2019-09-12 12:51:31 +0000";
layers = (
{
layerId = "FC429158-EA96-492C-B709-B39596C20987";
paths = (
{
closed = 1;
nodes = (
"454 475 LINE",
"454 265 LINE",
"339 183 LINE",
"339 416 LINE",
"130 427 LINE",
"130 84 LINE",
"22 12 LINE",
"22 432 LINE",
"1 451 LINE",
"118 532 LINE",
"130 532 LINE",
"130 470 LINE",
"347 456 LINE",
"444 511 LINE",
"467 511 LINE"
);
},
{
closed = 1;
nodes = (
"289 86 LINE",
"451 86 LINE",
"390 30 LINE",
"221 30 LINE",
"165 1 LINE",
"181 90 LINE",
"181 289 LINE",
"289 360 LINE"
);
}
);
width = 468;
}
);
unicode = 0073;
},
{
glyphname = t;
lastChange = "2019-09-12 12:53:50 +0000";
layers = (
{
layerId = "FC429158-EA96-492C-B709-B39596C20987";
paths = (
{
closed = 1;
nodes = (
"118 273 LINE",
"228 364 LINE",
"228 389 LINE",
"333 459 LINE",
"333 109 LINE",
"144 1 LINE",
"133 22 LINE",
"228 79 LINE",
"228 325 LINE",
"118 214 LINE",
"118 75 LINE",
"22 12 LINE",
"22 529 LINE",
"1 544 LINE",
"118 628 LINE"
);
}
);
width = 334;
}
);
unicode = 0074;
},
{
glyphname = u;
lastChange = "2019-09-12 13:06:25 +0000";
layers = (
{
layerId = "FC429158-EA96-492C-B709-B39596C20987";
paths = (
{
closed = 1;
nodes = (
"464 248 OFFCURVE",
"461 39 OFFCURVE",
"461 39 CURVE",
"353 -24 LINE",
"352 18 LINE",
"161 16 LINE",
"198 54 LINE",
"198 283 LINE",
"169 305 LINE",
"280 370 LINE",
"293 370 LINE",
"293 54 LINE",
"352 54 LINE",
"352 54 OFFCURVE",
"354 289 OFFCURVE",
"352 364 CURVE",
"352 412 OFFCURVE",
"325 454 OFFCURVE",
"240 454 CURVE",
"158 451 OFFCURVE",
"125 406 OFFCURVE",
"124 356 CURVE",
"123 295 OFFCURVE",
"123 91 OFFCURVE",
"123 91 CURVE",
"1 10 LINE",
"1 10 OFFCURVE",
"4 234 OFFCURVE",
"6 321 CURVE",
"6 430 OFFCURVE",
"123 498 OFFCURVE",
"240 501 CURVE",
"352 501 OFFCURVE",
"463 430 OFFCURVE",
"463 337 CURVE"
);
}
);
width = 464;
}
);
unicode = 0075;
},
{
glyphname = v;
lastChange = "2019-09-12 13:13:30 +0000";
layers = (
{
layerId = "FC429158-EA96-492C-B709-B39596C20987";
paths = (
{
closed = 1;
nodes = (
"675 319 OFFCURVE",
"448 67 OFFCURVE",
"448 66 CURVE",
"709 67 LINE",
"709 1 LINE",
"265 1 LINE",
"304 67 LINE",
"304 470 LINE",
"408 499 LINE",
"408 345 LINE",
"376 290 LINE",
"376 134 LINE",
"609 374 LINE",
"609 374 OFFCURVE",
"611 417 OFFCURVE",
"624 449 CURVE",
"635 475 OFFCURVE",
"681 495 OFFCURVE",
"710 491 CURVE",
"739 487 OFFCURVE",
"754 407 OFFCURVE",
"733 384 CURVE"
);
}
);
width = 1000;
}
);
unicode = 0076;
},
{
glyphname = w;
lastChange = "2019-09-12 13:23:49 +0000";
layers = (
{
layerId = "FC429158-EA96-492C-B709-B39596C20987";
paths = (
{
closed = 1;
nodes = (
"468 493 OFFCURVE",
"467 161 OFFCURVE",
"468 81 CURVE",
"468 33 OFFCURVE",
"349 1 OFFCURVE",
"348 3 CURVE",
"347 4 OFFCURVE",
"132 1 OFFCURVE",
"132 1 CURVE",
"239 84 LINE",
"283 54 LINE",
"349 53 LINE",
"349 336 LINE",
"298 301 LINE",
"298 157 LINE",
"178 83 LINE",
"178 155 LINE",
"131 127 LINE",
"131 85 LINE",
"16 13 LINE",
"16 175 LINE",
"28 188 LINE",
"28 405 LINE",
"1 413 LINE",
"117 499 LINE",
"151 499 LINE",
"151 455 LINE",
"131 442 LINE",
"131 175 LINE",
"178 202 LINE",
"178 360 LINE",
"166 371 LINE",
"298 464 LINE",
"298 337 LINE",
"349 372 LINE",
"349 418 LINE",
"467 493 LINE"
);
}
);
width = 469;
}
);
unicode = 0077;
},
{
glyphname = x;
lastChange = "2019-09-12 13:29:39 +0000";
layers = (
{
layerId = "FC429158-EA96-492C-B709-B39596C20987";
paths = (
{
closed = 1;
nodes = (
"246 60 LINE",
"402 60 LINE",
"402 1 LINE",
"165 1 LINE",
"167 60 LINE",
"366 363 LINE",
"426 351 LINE"
);
},
{
closed = 1;
nodes = (
"99 1 LINE",
"1 1 LINE",
"1 398 LINE",
"65 493 LINE",
"99 494 LINE",
"99 156 LINE",
"231 361 LINE",
"231 361 OFFCURVE",
"220 411 OFFCURVE",
"220 430 CURVE",
"221 454 OFFCURVE",
"264 487 OFFCURVE",
"295 496 CURVE",
"309 500 OFFCURVE",
"325 473 OFFCURVE",
"325 460 CURVE",
"324 437 OFFCURVE",
"323 372 OFFCURVE",
"323 372 CURVE"
);
}
);
width = 427;
}
);
unicode = 0078;
},
{
glyphname = y;
lastChange = "2019-09-12 13:33:58 +0000";
layers = (
{
layerId = "FC429158-EA96-492C-B709-B39596C20987";
paths = (
{
closed = 1;
nodes = (
"405 507 OFFCURVE",
"406 122 OFFCURVE",
"405 33 CURVE",
"405 3 OFFCURVE",
"340 -30 OFFCURVE",
"340 -33 CURVE",
"276 -30 LINE",
"270 1 LINE",
"1 1 LINE",
"1 67 LINE",
"98 139 LINE",
"98 139 OFFCURVE",
"32 163 OFFCURVE",
"15 204 CURVE",
"-1 243 OFFCURVE",
"-2 320 OFFCURVE",
"10 366 CURVE",
"21 411 OFFCURVE",
"69 460 OFFCURVE",
"112 478 CURVE",
"153 495 OFFCURVE",
"266 498 OFFCURVE",
"266 498 CURVE",
"266 498 OFFCURVE",
"138 434 OFFCURVE",
"114 394 CURVE",
"94 358 OFFCURVE",
"103 282 OFFCURVE",
"113 252 CURVE",
"123 229 OFFCURVE",
"178 193 OFFCURVE",
"178 193 CURVE",
"178 114 LINE",
"99 40 LINE",
"288 40 LINE",
"288 450 LINE",
"405 507 LINE"
);
}
);
width = 406;
}
);
unicode = 0079;
},
{
glyphname = z;
lastChange = "2019-09-12 13:37:10 +0000";
layers = (
{
layerId = "FC429158-EA96-492C-B709-B39596C20987";
paths = (
{
closed = 1;
nodes = (
"366 499 OFFCURVE",
"431 400 OFFCURVE",
"431 400 CURVE",
"305 266 LINE",
"444 101 LINE",
"342 1 LINE",
"1 1 LINE",
"33 67 LINE",
"33 373 LINE",
"2 402 LINE",
"126 499 LINE",
"126 67 LINE",
"328 67 LINE",
"233 251 LINE",
"320 352 LINE",
"320 352 OFFCURVE",
"275 396 OFFCURVE",
"255 421 CURVE",
"237 441 OFFCURVE",
"299 499 OFFCURVE",
"332 499 CURVE"
);
}
);
width = 445;
}
);
unicode = 007A;
},
